<svg xmlns="http://www.w3.org/2000/svg" viewBox="0 0 700 350" font-family="Inter Variable, Inter, system-ui, -apple-system, sans-serif">
<style>
  :root {
    --bg: #ffffff; --card: #f9fafb; --border: #e5e7eb;
    --text: #111827; --subtext: #6b7280; --muted: #9ca3af;
    --c0: #0284c7; --c1: #d97706; --c2: #059669; --c3: #dc2626;
    --c4: #7c3aed; --c5: #db2777; --c6: #0891b2; --c7: #ea580c;
    --on-primary: white; --detail: #bfdbfe; --item-bg: #f0f9ff;
  }
  .dark svg {
    --bg: #030712; --card: #111827; --border: #1f2937;
    --text: #f9fafb; --subtext: #9ca3af; --muted: #6b7280;
    --c0: #38bdf8; --c1: #fbbf24; --c2: #34d399; --c3: #f87171;
    --c4: #a78bfa; --c5: #f472b6; --c6: #22d3ee; --c7: #fb923c;
    --on-primary: white; --detail: #7dd3fc; --item-bg: #0c4a6e;
  }
</style>
<rect width="700" height="350" fill="var(--bg)" rx="8" stroke="var(--border)" stroke-width="1"/>
<text x="350" y="28" text-anchor="middle" fill="var(--text)" font-size="14" font-weight="600">Automated Model Certification Pipeline</text>
<rect x="175" y="44" width="170" height="50" rx="6" fill="var(--item-bg)" stroke="var(--c4)" stroke-width="2"><title>Foundation Model</title></rect>
<text x="260" y="72" text-anchor="middle" fill="var(--text)" font-size="11" font-weight="600">Foundation Model</text>
<polyline points="260,94 260,104 350,114" fill="none" stroke="var(--muted)" stroke-width="1.5"/>
<rect x="355" y="44" width="170" height="50" rx="6" fill="var(--card)" stroke="var(--c1)" stroke-width="2"><title>Evaluation Dataset</title></rect>
<text x="440" y="72" text-anchor="middle" fill="var(--text)" font-size="11" font-weight="600">Evaluation Dataset</text>
<polyline points="440,94 440,104 350,114" fill="none" stroke="var(--muted)" stroke-width="1.5"/>
<polygon points="350,114 346,107 354,107" fill="var(--muted)"/>
<rect x="30" y="114" width="640" height="108" rx="8" fill="var(--card)" stroke="var(--muted)" stroke-width="1.5" stroke-dasharray="6,3"/>
<rect x="68" y="132" width="135" height="36" rx="5" fill="var(--bg)" stroke="var(--border)" stroke-width="1"><title>Quality</title></rect>
<text x="135" y="153" text-anchor="middle" fill="var(--text)" font-size="10" font-weight="400">Quality</text>
<rect x="211" y="132" width="135" height="36" rx="5" fill="var(--bg)" stroke="var(--border)" stroke-width="1"><title>Groundedness</title></rect>
<text x="278" y="153" text-anchor="middle" fill="var(--text)" font-size="10" font-weight="400">Groundedness</text>
<rect x="354" y="132" width="135" height="36" rx="5" fill="var(--bg)" stroke="var(--border)" stroke-width="1"><title>Safety</title></rect>
<text x="421" y="153" text-anchor="middle" fill="var(--text)" font-size="10" font-weight="400">Safety</text>
<rect x="497" y="132" width="135" height="36" rx="5" fill="var(--bg)" stroke="var(--border)" stroke-width="1"><title>Privacy</title></rect>
<text x="564" y="153" text-anchor="middle" fill="var(--text)" font-size="10" font-weight="400">Privacy</text>
<rect x="68" y="176" width="135" height="36" rx="5" fill="var(--bg)" stroke="var(--border)" stroke-width="1"><title>Bias and Fairness</title></rect>
<text x="135" y="197" text-anchor="middle" fill="var(--text)" font-size="10" font-weight="400">Bias and Fairness</text>
<rect x="211" y="176" width="135" height="36" rx="5" fill="var(--bg)" stroke="var(--border)" stroke-width="1"><title>Robustness</title></rect>
<text x="278" y="197" text-anchor="middle" fill="var(--text)" font-size="10" font-weight="400">Robustness</text>
<rect x="354" y="176" width="135" height="36" rx="5" fill="var(--bg)" stroke="var(--border)" stroke-width="1"><title>Structured Output</title></rect>
<text x="421" y="197" text-anchor="middle" fill="var(--text)" font-size="10" font-weight="400">Structured Output</text>
<rect x="497" y="176" width="135" height="36" rx="5" fill="var(--bg)" stroke="var(--border)" stroke-width="1"><title>Explainability</title></rect>
<text x="564" y="197" text-anchor="middle" fill="var(--text)" font-size="10" font-weight="400">Explainability</text>
<line x1="350" y1="222" x2="350" y2="240" stroke="var(--muted)" stroke-width="1.5"/>
<line x1="144" y1="240" x2="554" y2="240" stroke="var(--muted)" stroke-width="1.5"/>
<line x1="144" y1="240" x2="144" y2="254" stroke="var(--muted)" stroke-width="1.5"/>
<polygon points="144,254 140,247 148,247" fill="var(--muted)"/>
<line x1="349" y1="240" x2="349" y2="254" stroke="var(--muted)" stroke-width="1.5"/>
<polygon points="349,254 345,247 353,247" fill="var(--muted)"/>
<line x1="554" y1="240" x2="554" y2="254" stroke="var(--muted)" stroke-width="1.5"/>
<polygon points="554,254 550,247 558,247" fill="var(--muted)"/>
<rect x="47" y="254" width="195" height="58" rx="6" fill="var(--card)" stroke="var(--c1)" stroke-width="2"><title>Certification Scorecard</title></rect>
<text x="144" y="286" text-anchor="middle" fill="var(--c1)" font-size="11" font-weight="600">Certification Scorecard</text>
<rect x="252" y="254" width="195" height="58" rx="6" fill="var(--card)" stroke="var(--c1)" stroke-width="2"><title>Compliance Document</title></rect>
<text x="349" y="286" text-anchor="middle" fill="var(--c1)" font-size="11" font-weight="600">Compliance Document</text>
<rect x="457" y="254" width="195" height="58" rx="6" fill="var(--card)" stroke="var(--c1)" stroke-width="2"><title>Evidence Package</title></rect>
<text x="554" y="286" text-anchor="middle" fill="var(--c1)" font-size="11" font-weight="600">Evidence Package</text>
<text x="350" y="336" text-anchor="middle" fill="var(--muted)" font-size="9.5">AWS Step Functions  Lambda Graviton2  Bedrock  S3 versioned  X-Ray</text>
</svg>