<svg xmlns="http://www.w3.org/2000/svg" viewBox="0 0 700 520" font-family="Inter, system-ui, -apple-system, sans-serif">
<rect width="700" height="520" fill="#ffffff" rx="8" stroke="#e5e7eb" stroke-width="1"/>
<text x="350" y="35" text-anchor="middle" fill="#111827" font-size="16" font-weight="700">Infrastructure Audit — Before &amp; After</text>
<text x="350" y="55" text-anchor="middle" fill="#6b7280" font-size="11">Every change made on a single Sunday morning. Zero downtime.</text>

<!-- Header row -->
<text x="50" y="85" fill="#6b7280" font-size="10" font-weight="600">FINDING</text>
<text x="380" y="85" fill="#dc2626" font-size="10" font-weight="600">BEFORE</text>
<text x="560" y="85" fill="#059669" font-size="10" font-weight="600">AFTER</text>
<line x1="40" y1="92" x2="660" y2="92" stroke="#e5e7eb" stroke-width="1"/>

<!-- Row 1 -->
<circle cx="55" cy="115" r="6" fill="#dc2626" opacity="0.8"/>
<text x="72" y="119" fill="#111827" font-size="10" font-weight="500">S3 public access</text>
<text x="380" y="119" fill="#6b7280" font-size="10">Open to *</text>
<text x="560" y="119" fill="#059669" font-size="10" font-weight="500">CloudFront OAC only</text>
<circle cx="665" cy="115" r="6" fill="#059669" opacity="0.8"/>

<!-- Row 2 -->
<circle cx="55" cy="150" r="6" fill="#dc2626" opacity="0.8"/>
<text x="72" y="154" fill="#111827" font-size="10" font-weight="500">Public access block</text>
<text x="380" y="154" fill="#6b7280" font-size="10">Not configured</text>
<text x="560" y="154" fill="#059669" font-size="10" font-weight="500">All 4 enabled</text>
<circle cx="665" cy="150" r="6" fill="#059669" opacity="0.8"/>

<!-- Row 3 -->
<circle cx="55" cy="185" r="6" fill="#dc2626" opacity="0.8"/>
<text x="72" y="189" fill="#111827" font-size="10" font-weight="500">HTTP → HTTPS</text>
<text x="380" y="189" fill="#6b7280" font-size="10">Not redirected</text>
<text x="560" y="189" fill="#059669" font-size="10" font-weight="500">301 redirect</text>
<circle cx="665" cy="185" r="6" fill="#059669" opacity="0.8"/>

<!-- Row 4 -->
<circle cx="55" cy="220" r="6" fill="#d97706" opacity="0.8"/>
<text x="72" y="224" fill="#111827" font-size="10" font-weight="500">Compression</text>
<text x="380" y="224" fill="#6b7280" font-size="10">Disabled</text>
<text x="560" y="224" fill="#059669" font-size="10" font-weight="500">gzip + Brotli</text>
<circle cx="665" cy="220" r="6" fill="#059669" opacity="0.8"/>

<!-- Row 5 -->
<circle cx="55" cy="255" r="6" fill="#d97706" opacity="0.8"/>
<text x="72" y="259" fill="#111827" font-size="10" font-weight="500">Security headers</text>
<text x="380" y="259" fill="#6b7280" font-size="10">None</text>
<text x="560" y="259" fill="#059669" font-size="10" font-weight="500">HSTS + 4 headers</text>
<circle cx="665" cy="255" r="6" fill="#059669" opacity="0.8"/>

<!-- Row 6 -->
<circle cx="55" cy="290" r="6" fill="#dc2626" opacity="0.8"/>
<text x="72" y="294" fill="#111827" font-size="10" font-weight="500">SSL certificate</text>
<text x="380" y="294" fill="#6b7280" font-size="10">Apex only</text>
<text x="560" y="294" fill="#059669" font-size="10" font-weight="500">Wildcard (*.)</text>
<circle cx="665" cy="290" r="6" fill="#059669" opacity="0.8"/>

<!-- Row 7 -->
<circle cx="55" cy="325" r="6" fill="#d97706" opacity="0.8"/>
<text x="72" y="329" fill="#111827" font-size="10" font-weight="500">Index rewriting</text>
<text x="380" y="329" fill="#6b7280" font-size="10">None</text>
<text x="560" y="329" fill="#059669" font-size="10" font-weight="500">CF Function</text>
<circle cx="665" cy="325" r="6" fill="#059669" opacity="0.8"/>

<!-- Row 8 -->
<circle cx="55" cy="360" r="6" fill="#d97706" opacity="0.8"/>
<text x="72" y="364" fill="#111827" font-size="10" font-weight="500">Build pipeline</text>
<text x="380" y="364" fill="#6b7280" font-size="10">Duplicate sync, no cache</text>
<text x="560" y="364" fill="#059669" font-size="10" font-weight="500">Single sync + cache</text>
<circle cx="665" cy="360" r="6" fill="#059669" opacity="0.8"/>

<!-- Row 9 -->
<circle cx="55" cy="395" r="6" fill="#d97706" opacity="0.8"/>
<text x="72" y="399" fill="#111827" font-size="10" font-weight="500">Price class</text>
<text x="380" y="399" fill="#6b7280" font-size="10">All regions</text>
<text x="560" y="399" fill="#059669" font-size="10" font-weight="500">NA + EU</text>
<circle cx="665" cy="395" r="6" fill="#059669" opacity="0.8"/>

<!-- Row 10 -->
<circle cx="55" cy="430" r="6" fill="#d97706" opacity="0.8"/>
<text x="72" y="434" fill="#111827" font-size="10" font-weight="500">RSS feed</text>
<text x="380" y="434" fill="#6b7280" font-size="10">Missing (403)</text>
<text x="560" y="434" fill="#059669" font-size="10" font-weight="500">Working</text>
<circle cx="665" cy="430" r="6" fill="#059669" opacity="0.8"/>

<line x1="40" y1="452" x2="660" y2="452" stroke="#e5e7eb" stroke-width="1"/>

<!-- Summary -->
<rect x="130" y="465" width="200" height="36" fill="#f9fafb" rx="6" stroke="#e5e7eb" stroke-width="1"/>
<text x="230" y="483" text-anchor="middle" fill="#6b7280" font-size="10">Monthly cost: </text>
<text x="230" y="496" text-anchor="middle" fill="#dc2626" font-size="11" font-weight="600">$4.56 → </text>

<rect x="370" y="465" width="200" height="36" fill="#f0fdf4" rx="6" stroke="#059669" stroke-width="1"/>
<text x="470" y="483" text-anchor="middle" fill="#6b7280" font-size="10">Monthly cost:</text>
<text x="470" y="496" text-anchor="middle" fill="#059669" font-size="11" font-weight="600">$3.54</text>
</svg>
