<svg xmlns="http://www.w3.org/2000/svg" viewBox="0 0 700 350" font-family="Inter Variable, Inter, system-ui, -apple-system, sans-serif">
<style>
  :root {
    --bg: #ffffff; --card: #f9fafb; --border: #e5e7eb;
    --text: #111827; --subtext: #6b7280; --muted: #9ca3af;
    --c0: #0284c7; --c1: #d97706; --c2: #059669; --c3: #dc2626;
    --c4: #7c3aed; --c5: #db2777; --c6: #0891b2; --c7: #ea580c;
    --on-primary: white; --detail: #bfdbfe; --item-bg: #f0f9ff;
  }
  .dark svg {
    --bg: #030712; --card: #111827; --border: #1f2937;
    --text: #f9fafb; --subtext: #9ca3af; --muted: #6b7280;
    --c0: #38bdf8; --c1: #fbbf24; --c2: #34d399; --c3: #f87171;
    --c4: #a78bfa; --c5: #f472b6; --c6: #22d3ee; --c7: #fb923c;
    --on-primary: white; --detail: #7dd3fc; --item-bg: #0c4a6e;
  }
</style>
<rect width="700" height="350" fill="var(--bg)" rx="8" stroke="var(--border)" stroke-width="1"/>
<text x="350" y="28" text-anchor="middle" fill="var(--text)" font-size="14" font-weight="600">7-Pass Blog Pipeline</text>
<rect x="175" y="44" width="170" height="50" rx="6" fill="var(--bg)" stroke="var(--border)" stroke-width="1"><title>Topic</title></rect>
<text x="260" y="72" text-anchor="middle" fill="var(--text)" font-size="11" font-weight="600">Topic</text>
<polyline points="260,94 260,104 350,114" fill="none" stroke="var(--subtext)" stroke-width="1.5"/>
<rect x="355" y="44" width="170" height="50" rx="6" fill="var(--bg)" stroke="var(--border)" stroke-width="1"><title>Research</title></rect>
<text x="440" y="72" text-anchor="middle" fill="var(--text)" font-size="11" font-weight="600">Research</text>
<polyline points="440,94 440,104 350,114" fill="none" stroke="var(--subtext)" stroke-width="1.5"/>
<polygon points="350,114 346,107 354,107" fill="var(--subtext)"/>
<rect x="30" y="114" width="640" height="108" rx="8" fill="var(--card)" stroke="var(--muted)" stroke-width="1.5" stroke-dasharray="6,3"/>
<rect x="68" y="132" width="135" height="36" rx="5" fill="var(--bg)" stroke="var(--border)" stroke-width="1"><title>Research</title></rect>
<text x="135" y="153" text-anchor="middle" fill="var(--text)" font-size="11" font-weight="400">Research</text>
<rect x="211" y="132" width="135" height="36" rx="5" fill="var(--bg)" stroke="var(--border)" stroke-width="1"><title>Draft</title></rect>
<text x="278" y="153" text-anchor="middle" fill="var(--text)" font-size="11" font-weight="400">Draft</text>
<rect x="354" y="132" width="135" height="36" rx="5" fill="var(--bg)" stroke="var(--border)" stroke-width="1"><title>Chart Placeholders</title></rect>
<text x="421" y="153" text-anchor="middle" fill="var(--text)" font-size="11" font-weight="400">Chart Placeholders</text>
<rect x="497" y="132" width="135" height="36" rx="5" fill="var(--bg)" stroke="var(--border)" stroke-width="1"><title>Diagram Placeholders</title></rect>
<text x="564" y="148" text-anchor="middle" fill="var(--text)" font-size="11" font-weight="400">Diagram</text>
<text x="564" y="161" text-anchor="middle" fill="var(--text)" font-size="10" font-weight="400">Placeholders</text>
<rect x="139" y="176" width="135" height="36" rx="5" fill="var(--bg)" stroke="var(--border)" stroke-width="1"><title>Citation Audit</title></rect>
<text x="206" y="197" text-anchor="middle" fill="var(--text)" font-size="11" font-weight="400">Citation Audit</text>
<rect x="282" y="176" width="135" height="36" rx="5" fill="var(--bg)" stroke="var(--border)" stroke-width="1"><title>Voice Audit</title></rect>
<text x="349" y="197" text-anchor="middle" fill="var(--text)" font-size="11" font-weight="400">Voice Audit</text>
<rect x="425" y="176" width="135" height="36" rx="5" fill="var(--bg)" stroke="var(--border)" stroke-width="1"><title>Insight Audit</title></rect>
<text x="492" y="197" text-anchor="middle" fill="var(--text)" font-size="11" font-weight="400">Insight Audit</text>
<line x1="350" y1="222" x2="350" y2="240" stroke="var(--subtext)" stroke-width="1.5"/>
<line x1="247" y1="240" x2="452" y2="240" stroke="var(--subtext)" stroke-width="1.5"/>
<line x1="247" y1="240" x2="247" y2="254" stroke="var(--subtext)" stroke-width="1.5"/>
<polygon points="247,254 243,247 251,247" fill="var(--subtext)"/>
<line x1="452" y1="240" x2="452" y2="254" stroke="var(--subtext)" stroke-width="1.5"/>
<polygon points="452,254 448,247 456,247" fill="var(--subtext)"/>
<rect x="150" y="254" width="195" height="58" rx="6" fill="var(--bg)" stroke="var(--border)" stroke-width="1"><title>Published Post</title></rect>
<text x="247" y="286" text-anchor="middle" fill="var(--text)" font-size="11" font-weight="600">Published Post</text>
<rect x="355" y="254" width="195" height="58" rx="6" fill="var(--bg)" stroke="var(--border)" stroke-width="1"><title>Audit Trail</title></rect>
<text x="452" y="286" text-anchor="middle" fill="var(--text)" font-size="11" font-weight="600">Audit Trail</text>
<text x="350" y="336" text-anchor="middle" fill="var(--muted)" font-size="9.5">Each pass is a separate Lambda invocation; stateless between passes</text>
</svg>